<svg id="Layer_1" data-name="Layer 1" xmlns="http://www.w3.org/2000/svg" viewBox="0 0 423.82 500.11"><defs><style>.cls-1{fill:#034961;}</style></defs><path class="cls-1" d="M59.59,256.9q-13-.56-19.28-.55a10.76,10.76,0,0,1-2.44-7c2.52,0,4.29-.42,5.32-1.28s1.55-2.3,1.55-4.37V191.66c0-2.07-.51-3.53-1.55-4.38S40.39,186,37.87,186a10.74,10.74,0,0,1,2.44-7q6.21,0,19.17-.34c3.83-.14,6.46-.22,7.86-.22q17.39,0,24.59,5.43t7.2,13.18a17.56,17.56,0,0,1-3.26,10.8q-3.27,4.38-10.81,7.48,9.87,2,14.07,6.32t4.21,13q0,22.59-33.89,22.59Q65.24,257.23,59.59,256.9Zm21.6-57.27c0-4.13-1.13-7.35-3.38-9.63s-5.67-3.44-10.25-3.44A17.11,17.11,0,0,0,63,187v25.48a30.47,30.47,0,0,0,3.32.22Q81.19,212.7,81.19,199.63Zm2,36.11q0-7.63-3.88-11.35t-12.62-3.71l-3.66.11v28a43.15,43.15,0,0,0,4.65.34Q83.18,249.15,83.18,235.74Z" transform="translate(-37.87 0.11)"/><path class="cls-1" d="M173.08,245.55a8.26,8.26,0,0,0,5,2.49v5.54q-2.56,3.54-9.64,3.54-6.64,0-10.47-2.21a14,14,0,0,1-5.65-5.82,49.14,49.14,0,0,1-3.38-9.47,73.8,73.8,0,0,0-3.54-10.86c-1.26-2.88-2.88-4.65-4.88-5.31h-7.31v20.27a4.73,4.73,0,0,0,2.11,4.26,9.83,9.83,0,0,0,5.53,1.39,10.75,10.75,0,0,1-2.43,7h-27.8a10.65,10.65,0,0,1-2.55-7c2.51,0,4.33-.44,5.48-1.33a5.15,5.15,0,0,0,1.72-4.32V191.66a5,5,0,0,0-1.78-4.32c-1.18-.89-3-1.33-5.54-1.33a10.26,10.26,0,0,1,2.22-7q7.31,0,16.39-.45,8-.44,12.52-.44,31.68,0,31.68,21.38,0,16.29-17.28,19.83,5,1.44,9.53,6.92a37.51,37.51,0,0,1,6.87,13A15.17,15.17,0,0,0,173.08,245.55Zm-24.54-33.9q3.77-4.16,3.77-11,0-7.09-3.27-10.58t-10.36-3.49a23.8,23.8,0,0,0-5.43.44v28.58a44.34,44.34,0,0,0,4.88.23Q144.78,215.81,148.54,211.65Z" transform="translate(-37.87 0.11)"/><path class="cls-1" d="M246.24,186a13.08,13.08,0,0,0-4.15.49,5.15,5.15,0,0,0-2.22,1.5,23,23,0,0,0-2.16,3.54l-19.27,35v17.17q0,2.88,3.1,4.21a19.18,19.18,0,0,0,7.53,1.33,11.67,11.67,0,0,1-.66,3.88,10.55,10.55,0,0,1-1.78,3.21H193.29a10.33,10.33,0,0,1-1.77-3.21,11.68,11.68,0,0,1-.67-3.88,17.73,17.73,0,0,0,7.2-1.33,4.41,4.41,0,0,0,3-4.21V229.1L179,190.88a9.79,9.79,0,0,0-3.54-3.49A9,9,0,0,0,170.8,186a9.94,9.94,0,0,1,2.66-7h29.91a9.89,9.89,0,0,1,2.55,7q-6.64,0-6.65,4.32a13.59,13.59,0,0,0,1.78,5.54l10.63,20L223.86,193a4.69,4.69,0,0,0,.56-2.1,4.2,4.2,0,0,0-1.94-3.43,7.48,7.48,0,0,0-4.6-1.44,9.89,9.89,0,0,1,2.55-7h23.15A9.94,9.94,0,0,1,246.24,186Z" transform="translate(-37.87 0.11)"/><path class="cls-1" d="M260.31,252.91A33.75,33.75,0,0,1,247,239.07a43,43,0,0,1-4.65-20.27q0-13.31,4.59-22.49a31.74,31.74,0,0,1,12.8-13.85,39.67,39.67,0,0,1,32.34-2.21,27.58,27.58,0,0,1,4.82-1.56,30.36,30.36,0,0,1,4.93-.88q3.21,8.2,3.21,25H294.32q-1.11-7.09-5.48-11A15.24,15.24,0,0,0,278.37,188a13.06,13.06,0,0,0-11.47,6.26q-4.15,6.26-4.15,21.66,0,17.06,4.1,24.14t12.51,7.09a17.62,17.62,0,0,0,5.21-.66,8,8,0,0,0,3.55-2.22V231.65a4.33,4.33,0,0,0-2.5-4.16q-2.49-1.28-7.81-1.27a16.93,16.93,0,0,1,.78-4.66,9.8,9.8,0,0,1,1.88-3.87H304.4q4.32,0,6,2.54a9,9,0,0,1,1.66,4.88,3.66,3.66,0,0,1-.55,2,17.21,17.21,0,0,0-6.2.89v12.74c0,2.36.4,4,1.21,5a2.71,2.71,0,0,1,.78,2c0,1.33-1.22,2.8-3.65,4.43a33.84,33.84,0,0,1-9.81,4.1,50.49,50.49,0,0,1-13.24,1.66A39.79,39.79,0,0,1,260.31,252.91Z" transform="translate(-37.87 0.11)"/><path class="cls-1" d="M333.86,252.91a33.75,33.75,0,0,1-13.29-13.84,43,43,0,0,1-4.65-20.27q0-13.31,4.6-22.49a31.66,31.66,0,0,1,12.79-13.85,39.7,39.7,0,0,1,32.35-2.21,27.42,27.42,0,0,1,4.81-1.56,30.26,30.26,0,0,1,4.94-.88q3.21,8.2,3.21,25H367.87q-1.11-7.09-5.48-11A15.24,15.24,0,0,0,351.92,188a13,13,0,0,0-11.46,6.26q-4.15,6.26-4.16,21.66,0,17.06,4.1,24.14t12.52,7.09a17.6,17.6,0,0,0,5.2-.66,8,8,0,0,0,3.55-2.22V231.65a4.34,4.34,0,0,0-2.49-4.16q-2.51-1.28-7.81-1.27a16.88,16.88,0,0,1,.77-4.66,9.93,9.93,0,0,1,1.89-3.87H378c2.88,0,4.88.85,6,2.54a9,9,0,0,1,1.67,4.88,3.66,3.66,0,0,1-.56,2,17.21,17.21,0,0,0-6.2.89v12.74c0,2.36.4,4,1.22,5a2.75,2.75,0,0,1,.77,2c0,1.33-1.22,2.8-3.65,4.43a33.84,33.84,0,0,1-9.81,4.1,50.47,50.47,0,0,1-13.23,1.66A39.83,39.83,0,0,1,333.86,252.91Z" transform="translate(-37.87 0.11)"/><path class="cls-1" d="M456.05,247.26a9.24,9.24,0,0,0,5.65,2,11.68,11.68,0,0,1-.67,3.88,9.29,9.29,0,0,1-1.88,3.21h-30a9.31,9.31,0,0,1-1.89-3.21,11.67,11.67,0,0,1-.66-3.88q6.32,0,6.32-5.32a21,21,0,0,0-.78-5.2l-.66-2.33H406.64l-.66,2.33a20.27,20.27,0,0,0-1,4.87q0,5.64,7.09,5.65a11.67,11.67,0,0,1-.66,3.88,9.47,9.47,0,0,1-1.89,3.21h-24.7a9.29,9.29,0,0,1-1.88-3.21,11.43,11.43,0,0,1-.67-3.88,9.46,9.46,0,0,0,5.65-1.83,10.67,10.67,0,0,0,3.77-5.37l18.16-53.62A36.72,36.72,0,0,0,398.67,187a12.09,12.09,0,0,1,2.65-8h30.36l20.6,62.69A10.58,10.58,0,0,0,456.05,247.26Zm-27-19.49-7.87-27.47a21,21,0,0,0-2.54-5.65l-9.53,33.12Z" transform="translate(-37.87 0.11)"/><path class="cls-1" d="M245.49,295.79h28.92l1.45,54.3,1.76,32.1c7.62,64.33,97.79,11.89,106.73-38.7h0a73.16,73.16,0,0,0,1.1-12.75,74.51,74.51,0,0,0-1.57-15.32l29.94-31.71a113.49,113.49,0,0,1,10.27,47A111.48,111.48,0,0,1,422,352.43c-9.55,48.43-50.5,88.77-105.88,107.63-21.67,7.37-40.46,9.77-70.62,39.94-30.21-30.21-49.19-32.61-70.95-40.06C119.34,441,78.52,400.76,69,352.43a110.71,110.71,0,0,1-2.12-21.69,113.66,113.66,0,0,1,10.26-47.05l30,31.71a74.38,74.38,0,0,0-.5,28.09c.14.83.33,1.69.5,2.51,11.42,49.85,99,99.61,106.28,35.88l.5-8.91,1.27-22.88,1.42-54.3Z" transform="translate(-37.87 0.11)"/><rect class="cls-1" x="113.57" y="278.84" width="188.12" height="25.75"/><path class="cls-1" d="M128.82,340.66l-22.74-1.27L67.73,345l-18.66,10c8.38-50.3,27.54-76.21,27.54-76.21S104.59,301.12,128.82,340.66Z" transform="translate(-37.87 0.11)"/><path class="cls-1" d="M362.23,340.66,385,339.39,423.32,345l18.66,10c-8.38-50.3-27.54-76.21-27.54-76.21S386.46,301.12,362.23,340.66Z" transform="translate(-37.87 0.11)"/><polygon class="cls-1" points="207.61 82.1 194.74 82.1 194.74 130.45 161.95 130.45 161.95 156.2 194.74 156.2 207.61 156.2 220.49 156.2 253.27 156.2 253.27 130.45 220.49 130.45 220.49 82.1 207.61 82.1"/><path class="cls-1" d="M245.49,96.28a48.2,48.2,0,1,1,48.19-48.2A48.25,48.25,0,0,1,245.49,96.28Zm0-68.79a20.6,20.6,0,1,0,20.59,20.59A20.62,20.62,0,0,0,245.49,27.49Z" transform="translate(-37.87 0.11)"/></svg>